<?xml version="1.0" encoding="UTF-8" standalone="no"?>
<svg xmlns="http://www.w3.org/2000/svg" height="16" width="16" version="1.1">
  <path fill="#bebebe" d="M2 1C1.448 1 1 1.448 1 2L1 14C1 14.552 1.448 15 2 15L9 15L9 1Z"/>
  <path fill="#bebebe" d="M11 1L11 15L14 15C14.552 15 15 14.552 15 14L15 2C15 1.448 14.552 1 14 1Z"/>
  <path fill="#bebebe" d="M2.5 3L8.5 3L8.5 4L2.5 4ZM2.5 5L7 5L7 6L2.5 6ZM2.5 7L8 7L8 8L2.5 8ZM2.5 9L6.5 9L6.5 10L2.5 10ZM2.5 11L7.5 11L7.5 12L2.5 12Z"/>
  <path fill="#bebebe" d="M11.5 2L14.5 2L14.5 5L11.5 5ZM11.5 5.5L12.5 7L13.3 6L14.5 7.5L14.5 8.5L11.5 8.5Z"/>
</svg>
